<?xml version="1.0" encoding="utf-8"?>
<!-- Generator: Adobe Illustrator 16.0.0, SVG Export Plug-In . SVG Version: 6.00 Build 0)  -->
<!DOCTYPE svg PUBLIC "-//W3C//DTD SVG 1.1//EN" "http://www.w3.org/Graphics/SVG/1.1/DTD/svg11.dtd">
<svg version="1.1" id="Calque_1" xmlns="http://www.w3.org/2000/svg" xmlns:xlink="http://www.w3.org/1999/xlink" x="0px" y="0px"
	 width="110px" height="94.6px" viewBox="0 0 110 94.6" style="enable-background:new 0 0 110 94.6;" xml:space="preserve">
<g>
	<g>
		<path style="fill:#46AAE1;" d="M53.3,50.3c13.9,0,25.1-11.3,25.1-25.2C78.5,11.3,67.2,0,53.3,0C39.4,0,28.2,11.3,28.2,25.2
			C28.2,39.1,39.4,50.3,53.3,50.3z M53.6,7c0,0,15.5,8.7,15.5,21.6c0,8.1-7,14.7-15.5,14.7c-8.6,0-15.5-6.6-15.5-14.7
			C38.1,16.4,53.6,7,53.6,7z M61.1,38.6c1.8,0,3.3-1.5,3.3-3.3c0-1.8-1.5-3.3-3.3-3.3c-1.8,0-3.3,1.5-3.3,3.3
			C57.8,37.1,59.3,38.6,61.1,38.6z M5.2,62.7c-0.8,0-1.5,0.2-2.1,0.6c-0.6,0.4-1.1,0.9-1.4,1.4V56c0-0.2-0.1-0.3-0.2-0.4
			c-0.2-0.1-0.4-0.2-0.6-0.2c-0.2,0-0.4,0.1-0.6,0.2C0.1,55.7,0,55.8,0,56v18.5c0,0.2,0.1,0.3,0.2,0.5c0.2,0.1,0.4,0.2,0.6,0.2
			c0.2,0,0.4-0.1,0.6-0.2s0.2-0.3,0.2-0.5v-1.2c0.3,0.6,0.7,1,1.4,1.4c0.7,0.4,1.4,0.6,2.2,0.6c1.2,0,2.3-0.5,3.2-1.5
			c0.9-1,1.4-2.1,1.4-3.4v-2.8c0-1.3-0.5-2.5-1.4-3.4C7.5,63.2,6.4,62.7,5.2,62.7z M8.1,70.4c0,0.9-0.3,1.6-1,2.3
			c-0.6,0.7-1.4,1-2.3,1c-0.8,0-1.6-0.3-2.2-0.9c-0.7-0.6-1-1.2-1-1.6v-3.6c0-1,0.3-1.8,1-2.4c0.6-0.6,1.4-0.9,2.2-0.9
			c0.9,0,1.6,0.3,2.3,1c0.6,0.7,1,1.4,1,2.3V70.4z M13.9,55.3c-0.2,0-0.4,0.1-0.6,0.2c-0.2,0.1-0.2,0.3-0.2,0.4v18.6
			c0,0.2,0.1,0.3,0.2,0.5c0.2,0.1,0.4,0.2,0.6,0.2c0.2,0,0.4-0.1,0.6-0.2c0.2-0.1,0.2-0.3,0.2-0.5V55.9c0-0.2-0.1-0.3-0.2-0.4
			C14.3,55.4,14.1,55.3,13.9,55.3z M23.3,75.4c1.3,0,2.5-0.5,3.5-1.5c1-1,1.5-2.1,1.5-3.4v-7c0-0.2-0.1-0.3-0.2-0.4
			c-0.2-0.1-0.4-0.2-0.6-0.2c-0.2,0-0.4,0.1-0.6,0.2c-0.2,0.1-0.3,0.3-0.3,0.4v7c0,0.9-0.3,1.6-1,2.3c-0.6,0.7-1.4,1-2.3,1
			c-0.9,0-1.6-0.3-2.3-1s-1-1.4-1-2.3v-6.9c0-0.2-0.1-0.3-0.3-0.4c-0.2-0.1-0.4-0.2-0.6-0.2c-0.2,0-0.4,0.1-0.6,0.2
			c-0.2,0.1-0.2,0.3-0.2,0.4v6.9c0,1.3,0.5,2.4,1.5,3.4C20.8,74.9,22,75.4,23.3,75.4z M38.8,69.5c0.4,0,0.7,0,0.9-0.1
			c0.2,0,0.4-0.1,0.7-0.2c0.3-0.1,0.4-0.3,0.5-0.6c0.1-0.3,0.2-0.7,0.2-1.2c0-1.4-0.5-2.5-1.4-3.4s-2.1-1.4-3.4-1.4
			c-1.4,0-2.5,0.5-3.5,1.4c-1,0.9-1.5,2.1-1.5,3.4v2.9c0,1.5,0.5,2.7,1.6,3.6s2.4,1.4,4,1.4c1.1,0,2-0.2,2.8-0.6
			c0.7-0.4,1.1-0.8,1.1-1.1c0-0.2-0.1-0.4-0.2-0.5c-0.1-0.2-0.3-0.3-0.5-0.3c-0.1,0-0.3,0.1-0.6,0.3c-0.2,0.2-0.6,0.3-1,0.5
			c-0.4,0.2-1,0.3-1.5,0.3c-1.2,0-2.1-0.3-2.8-0.9c-0.7-0.6-1.1-1.4-1.1-2.5v-1H38.8z M32.9,67.3c0-0.9,0.3-1.6,0.9-2.2
			c0.6-0.6,1.4-0.9,2.3-0.9c0.9,0,1.7,0.3,2.3,1c0.6,0.7,0.9,1.4,0.9,2.3c0,0.4-0.1,0.6-0.3,0.7c-0.2,0.1-0.5,0.2-1,0.2h-5.2V67.3z
			 M51.5,73.3v1.2c0,0.2,0.1,0.3,0.2,0.5c0.2,0.1,0.4,0.2,0.6,0.2c0.2,0,0.4-0.1,0.6-0.2c0.2-0.1,0.2-0.3,0.2-0.5V56
			c0-0.2-0.1-0.3-0.2-0.4s-0.3-0.2-0.6-0.2c-0.2,0-0.5,0.1-0.6,0.2c-0.2,0.1-0.3,0.3-0.3,0.4v8.7c-0.3-0.6-0.7-1-1.3-1.4
			c-0.6-0.4-1.3-0.6-2.1-0.6c-1.3,0-2.4,0.5-3.3,1.4c-0.9,1-1.4,2.1-1.4,3.4v2.8c0,1.3,0.5,2.5,1.4,3.4c0.9,1,2,1.5,3.2,1.5
			c0.8,0,1.5-0.2,2.1-0.6C50.8,74.4,51.2,73.9,51.5,73.3z M48.3,73.8c-0.9,0-1.6-0.3-2.3-1s-1-1.5-1-2.3v-2.8c0-0.8,0.3-1.6,1-2.3
			c0.6-0.7,1.4-1,2.3-1c0.8,0,1.6,0.3,2.2,0.9c0.6,0.6,0.9,1.4,0.9,2.4v3.6c0,0.5-0.3,1-1,1.6C49.8,73.5,49.1,73.8,48.3,73.8z
			 M62.7,62.7h-0.9c-0.8,0-1.5,0.2-2.1,0.6c-0.6,0.4-1.1,0.9-1.4,1.5v-1.3c0-0.2-0.1-0.3-0.2-0.4c-0.2-0.1-0.3-0.2-0.6-0.2
			c-0.2,0-0.4,0.1-0.6,0.2s-0.2,0.3-0.2,0.4v11c0,0.2,0.1,0.3,0.2,0.5c0.2,0.1,0.4,0.2,0.6,0.2c0.2,0,0.4-0.1,0.6-0.2
			c0.2-0.1,0.2-0.3,0.2-0.5v-6.4c0-1.1,0.3-2,1-2.7c0.7-0.7,1.5-1.1,2.4-1.1h0.9c0.2,0,0.3-0.1,0.5-0.2c0.1-0.2,0.2-0.3,0.2-0.6
			c0-0.2-0.1-0.4-0.2-0.6C63,62.8,62.9,62.7,62.7,62.7z M69.5,62.7c-1.3,0-2.5,0.5-3.5,1.4c-1,1-1.5,2.1-1.5,3.4v2.8
			c0,1.3,0.5,2.5,1.5,3.4c1,1,2.1,1.5,3.4,1.5c1.3,0,2.5-0.5,3.5-1.5c1-1,1.5-2.1,1.5-3.4v-2.8c0-1.3-0.5-2.5-1.5-3.4
			C72,63.2,70.8,62.7,69.5,62.7z M72.8,70.4c0,0.9-0.3,1.7-1,2.3c-0.6,0.7-1.4,1-2.3,1c-0.9,0-1.6-0.3-2.3-1
			c-0.6-0.7-0.9-1.5-0.9-2.3v-2.8c0-0.8,0.3-1.6,0.9-2.3c0.6-0.7,1.4-1,2.3-1s1.7,0.3,2.3,1c0.7,0.7,1,1.4,1,2.3V70.4z M82.6,62.7
			c-0.8,0-1.5,0.2-2.1,0.6c-0.6,0.4-1.1,0.9-1.4,1.4v-1.2c0-0.2-0.1-0.3-0.2-0.4c-0.2-0.1-0.3-0.2-0.6-0.2c-0.2,0-0.4,0.1-0.6,0.2
			c-0.2,0.1-0.2,0.3-0.2,0.4v17.1c0,0.2,0.1,0.3,0.2,0.4c0.2,0.1,0.4,0.2,0.6,0.2c0.2,0,0.4-0.1,0.6-0.2c0.2-0.1,0.2-0.3,0.2-0.4
			v-7.2c0.3,0.6,0.8,1,1.4,1.4c0.6,0.4,1.3,0.6,2.1,0.6c1.2,0,2.3-0.5,3.2-1.5c0.9-1,1.4-2.1,1.4-3.4v-2.8c0-1.3-0.5-2.5-1.4-3.4
			C85,63.2,83.9,62.7,82.6,62.7z M85.6,70.4c0,0.9-0.3,1.6-1,2.3s-1.4,1-2.2,1c-0.8,0-1.6-0.3-2.2-0.9s-1-1.2-1-1.6v-3.6
			c0-1,0.3-1.8,0.9-2.4c0.6-0.6,1.4-0.9,2.2-0.9c0.9,0,1.7,0.3,2.3,1c0.7,0.7,1,1.4,1,2.3V70.4z M90.9,72.7c-0.3,0-0.6,0.1-0.8,0.4
			c-0.2,0.3-0.3,0.6-0.3,0.9c0,0.4,0.1,0.7,0.3,0.9c0.2,0.3,0.5,0.4,0.8,0.4c0.3,0,0.6-0.1,0.8-0.4c0.2-0.3,0.3-0.6,0.3-0.9
			c0-0.4-0.1-0.7-0.3-0.9C91.5,72.9,91.2,72.7,90.9,72.7z M97.7,57.8c0.6-0.6,1.3-0.9,2.2-0.9h0.4c0.2,0,0.4-0.1,0.5-0.2
			s0.2-0.3,0.2-0.6c0-0.2-0.1-0.4-0.2-0.6s-0.3-0.2-0.5-0.2h-0.7c-1.2,0-2.3,0.5-3.2,1.4c-0.9,0.9-1.4,2.1-1.4,3.4v14.5
			c0,0.2,0.1,0.3,0.2,0.5c0.2,0.1,0.3,0.2,0.6,0.2c0.2,0,0.5-0.1,0.6-0.2c0.2-0.1,0.3-0.3,0.3-0.5V64.3h3.7c0.2,0,0.3-0.1,0.4-0.2
			c0.1-0.1,0.2-0.3,0.2-0.5c0-0.2-0.1-0.3-0.2-0.5c-0.1-0.1-0.3-0.2-0.4-0.2h-3.7V60C96.8,59.1,97.1,58.4,97.7,57.8z M109.8,63
			c-0.1-0.2-0.3-0.2-0.5-0.2h-0.9c-0.8,0-1.5,0.2-2.1,0.6s-1.1,0.9-1.4,1.5v-1.3c0-0.2-0.1-0.3-0.2-0.4c-0.2-0.1-0.3-0.2-0.6-0.2
			c-0.2,0-0.4,0.1-0.6,0.2s-0.2,0.3-0.2,0.4v11c0,0.2,0.1,0.3,0.2,0.5c0.2,0.1,0.4,0.2,0.6,0.2c0.2,0,0.4-0.1,0.6-0.2
			s0.2-0.3,0.2-0.5v-6.4c0-1.1,0.3-2,1-2.7c0.7-0.7,1.5-1.1,2.4-1.1h0.9c0.2,0,0.3-0.1,0.5-0.2c0.1-0.2,0.2-0.3,0.2-0.6
			C110,63.3,109.9,63.1,109.8,63z M23.7,82.8c-0.3,0-0.4,0.1-0.4,0.3v6.1c0,0.6-0.2,1.1-0.5,1.4s-0.7,0.5-1.3,0.5
			c-0.6,0-1-0.2-1.3-0.5s-0.5-0.8-0.5-1.4v-6.1c0-0.2-0.1-0.3-0.4-0.3c-0.3,0-0.4,0.1-0.4,0.3v6.1c0,0.9,0.2,1.6,0.7,2
			c0.5,0.4,1.1,0.6,1.9,0.6c0.8,0,1.4-0.2,1.9-0.6c0.5-0.4,0.7-1.1,0.7-2v-6.1C24.1,82.9,23.9,82.8,23.7,82.8z M28.1,88.7
			c-0.3-0.1-0.6-0.2-0.9-0.3c-0.3-0.1-0.5-0.2-0.8-0.3s-0.3-0.3-0.3-0.6c0-0.2,0.1-0.5,0.3-0.7c0.2-0.2,0.5-0.3,0.9-0.3
			c0.3,0,0.6,0.1,0.8,0.2c0.3,0.1,0.4,0.2,0.5,0.2c0.1,0,0.2,0,0.2-0.1c0.1-0.1,0.1-0.2,0.1-0.3c0-0.1-0.2-0.3-0.5-0.4
			s-0.7-0.2-1.1-0.2c-0.6,0-1.1,0.2-1.5,0.5c-0.3,0.3-0.5,0.7-0.5,1.2c0,0.4,0.1,0.7,0.3,0.9c0.2,0.2,0.5,0.4,0.8,0.5
			s0.6,0.2,0.9,0.3c0.3,0.1,0.5,0.2,0.8,0.4c0.2,0.2,0.3,0.4,0.3,0.7c0,0.3-0.1,0.5-0.3,0.6c-0.2,0.2-0.5,0.2-1,0.2
			c-0.3,0-0.6,0-0.8-0.1c-0.2-0.1-0.4-0.2-0.5-0.3c-0.1-0.1-0.2-0.1-0.3-0.1c-0.1,0-0.1,0-0.2,0.1c-0.1,0.1-0.1,0.2-0.1,0.2
			c0,0.2,0.2,0.4,0.6,0.6c0.4,0.2,0.8,0.3,1.4,0.3c0.6,0,1.1-0.1,1.5-0.4c0.3-0.3,0.5-0.7,0.5-1.2c0-0.4-0.1-0.8-0.3-1
			C28.7,88.9,28.4,88.8,28.1,88.7z M30.8,83.2c-0.2,0-0.3,0-0.4,0.1c-0.1,0.1-0.2,0.2-0.2,0.4c0,0.1,0.1,0.3,0.2,0.4
			s0.2,0.2,0.4,0.2c0.1,0,0.3-0.1,0.4-0.2c0.1-0.1,0.2-0.2,0.2-0.4c0-0.1-0.1-0.3-0.2-0.4C31.1,83.2,30.9,83.2,30.8,83.2z
			 M30.8,85.9c-0.1,0-0.2,0-0.3,0.1c-0.1,0.1-0.1,0.1-0.1,0.2v5.2c0,0.1,0,0.2,0.1,0.2c0.1,0.1,0.2,0.1,0.3,0.1c0.1,0,0.2,0,0.3-0.1
			s0.1-0.1,0.1-0.2v-5.2c0-0.1,0-0.2-0.1-0.2C31,86,30.9,85.9,30.8,85.9z M35.1,85.9c-0.4,0-0.7,0.1-1,0.3c-0.3,0.2-0.5,0.4-0.6,0.7
			v-0.6c0-0.1,0-0.2-0.1-0.2c-0.1-0.1-0.2-0.1-0.3-0.1c-0.1,0-0.2,0-0.3,0.1c-0.1,0.1-0.1,0.1-0.1,0.2v5.2c0,0.1,0,0.2,0.1,0.2
			s0.2,0.1,0.3,0.1c0.1,0,0.2,0,0.3-0.1s0.1-0.1,0.1-0.2v-3.3c0-0.5,0.1-0.8,0.4-1.1c0.3-0.3,0.6-0.4,1-0.4c0.4,0,0.8,0.2,1.1,0.5
			c0.3,0.3,0.5,0.7,0.5,1.1v3.3c0,0.1,0,0.2,0.1,0.2c0.1,0.1,0.2,0.1,0.3,0.1c0.1,0,0.2,0,0.3-0.1c0.1-0.1,0.1-0.1,0.1-0.2v-3.3
			c0-0.6-0.2-1.2-0.7-1.6C36.3,86.1,35.7,85.9,35.1,85.9z M40.9,85.9c-0.6,0-1.2,0.2-1.6,0.7c-0.5,0.5-0.7,1-0.7,1.6v1.3
			c0,0.6,0.2,1.2,0.7,1.6c0.5,0.5,1,0.7,1.6,0.7c0.6,0,1.2-0.2,1.6-0.7c0.5-0.5,0.7-1,0.7-1.6v-1.3c0-0.6-0.2-1.2-0.7-1.6
			C42.1,86.1,41.6,85.9,40.9,85.9z M42.5,89.5c0,0.4-0.2,0.8-0.5,1.1s-0.7,0.5-1.1,0.5c-0.4,0-0.8-0.2-1.1-0.5
			c-0.3-0.3-0.4-0.7-0.4-1.1v-1.3c0-0.4,0.1-0.8,0.4-1.1c0.3-0.3,0.7-0.5,1.1-0.5c0.4,0,0.8,0.2,1.1,0.5c0.3,0.3,0.5,0.7,0.5,1.1
			V89.5z M47,85.9c-0.4,0-0.7,0.1-1,0.3s-0.5,0.4-0.6,0.7v-0.6c0-0.1,0-0.2-0.1-0.2c-0.1-0.1-0.2-0.1-0.3-0.1c-0.1,0-0.2,0-0.3,0.1
			c-0.1,0.1-0.1,0.1-0.1,0.2v5.2c0,0.1,0,0.2,0.1,0.2c0.1,0.1,0.2,0.1,0.3,0.1c0.1,0,0.2,0,0.3-0.1s0.1-0.1,0.1-0.2v-3.3
			c0-0.5,0.1-0.8,0.4-1.1s0.6-0.4,1-0.4c0.4,0,0.8,0.2,1.1,0.5c0.3,0.3,0.5,0.7,0.5,1.1v3.3c0,0.1,0,0.2,0.1,0.2
			c0.1,0.1,0.2,0.1,0.3,0.1c0.1,0,0.2,0,0.3-0.1c0.1-0.1,0.1-0.1,0.1-0.2v-3.3c0-0.6-0.2-1.2-0.7-1.6C48.1,86.1,47.6,85.9,47,85.9z
			 M53.1,88.7c-0.3-0.1-0.6-0.2-0.9-0.3c-0.3-0.1-0.5-0.2-0.8-0.3c-0.2-0.1-0.3-0.3-0.3-0.6c0-0.2,0.1-0.5,0.3-0.7
			c0.2-0.2,0.5-0.3,0.9-0.3c0.3,0,0.6,0.1,0.8,0.2c0.3,0.1,0.4,0.2,0.5,0.2c0.1,0,0.2,0,0.2-0.1c0.1-0.1,0.1-0.2,0.1-0.3
			c0-0.1-0.2-0.3-0.5-0.4s-0.7-0.2-1.1-0.2c-0.6,0-1.1,0.2-1.5,0.5c-0.3,0.3-0.5,0.7-0.5,1.2c0,0.4,0.1,0.7,0.3,0.9
			c0.2,0.2,0.5,0.4,0.8,0.5s0.6,0.2,0.9,0.3s0.5,0.2,0.8,0.4c0.2,0.2,0.3,0.4,0.3,0.7c0,0.3-0.1,0.5-0.3,0.6c-0.2,0.2-0.5,0.2-1,0.2
			c-0.3,0-0.6,0-0.8-0.1c-0.2-0.1-0.4-0.2-0.5-0.3c-0.1-0.1-0.2-0.1-0.3-0.1c-0.1,0-0.1,0-0.2,0.1c-0.1,0.1-0.1,0.2-0.1,0.2
			c0,0.2,0.2,0.4,0.6,0.6c0.4,0.2,0.8,0.3,1.4,0.3c0.6,0,1.1-0.1,1.5-0.4c0.3-0.3,0.5-0.7,0.5-1.2c0-0.4-0.1-0.8-0.3-1
			C53.7,88.9,53.4,88.8,53.1,88.7z M60.6,82.8h-2.2c-0.1,0-0.2,0-0.3,0.1C58.1,82.9,58,83,58,83.1v8.4c0,0.1,0,0.2,0.1,0.2
			c0.1,0.1,0.2,0.1,0.3,0.1h2.2c0.8,0,1.4-0.2,1.9-0.6s0.7-1.1,0.7-2v-3.7c0-0.9-0.2-1.6-0.7-2C62,83,61.3,82.8,60.6,82.8z
			 M62.3,89.1c0,0.6-0.2,1.1-0.5,1.4c-0.3,0.3-0.7,0.5-1.3,0.5h-1.7v-7.5h1.7c0.6,0,1,0.2,1.3,0.5s0.5,0.8,0.5,1.4V89.1z M67.5,85.9
			h-0.4c-0.4,0-0.7,0.1-1,0.3c-0.3,0.2-0.5,0.4-0.7,0.7v-0.6c0-0.1,0-0.2-0.1-0.2c-0.1-0.1-0.2-0.1-0.3-0.1c-0.1,0-0.2,0-0.3,0.1
			c-0.1,0.1-0.1,0.1-0.1,0.2v5.2c0,0.1,0,0.2,0.1,0.2s0.2,0.1,0.3,0.1c0.1,0,0.2,0,0.3-0.1c0.1-0.1,0.1-0.1,0.1-0.2v-3
			c0-0.5,0.2-1,0.5-1.3c0.3-0.3,0.7-0.5,1.1-0.5h0.4c0.1,0,0.2,0,0.2-0.1c0.1-0.1,0.1-0.2,0.1-0.3c0-0.1,0-0.2-0.1-0.3
			C67.7,85.9,67.6,85.9,67.5,85.9z M72.9,85.9c-0.1,0-0.2,0-0.3,0.1c-0.1,0.1-0.1,0.1-0.1,0.2v3.3c0,0.4-0.2,0.8-0.5,1.1
			c-0.3,0.3-0.7,0.5-1.1,0.5c-0.4,0-0.8-0.2-1.1-0.5c-0.3-0.3-0.5-0.7-0.5-1.1v-3.3c0-0.1,0-0.1-0.1-0.2c-0.1-0.1-0.2-0.1-0.3-0.1
			c-0.1,0-0.2,0-0.3,0.1c-0.1,0.1-0.1,0.1-0.1,0.2v3.3c0,0.6,0.2,1.2,0.7,1.6c0.5,0.5,1,0.7,1.6,0.7c0.6,0,1.2-0.2,1.6-0.7
			c0.5-0.5,0.7-1,0.7-1.6v-3.3c0-0.1,0-0.2-0.1-0.2C73.1,86,73.1,85.9,72.9,85.9z M77.2,85.9c-0.4,0-0.7,0.1-1,0.3
			c-0.3,0.2-0.5,0.4-0.7,0.7v-0.6c0-0.1,0-0.2-0.1-0.2c-0.1-0.1-0.2-0.1-0.3-0.1c-0.1,0-0.2,0-0.3,0.1c-0.1,0.1-0.1,0.1-0.1,0.2v8.1
			c0,0.1,0,0.1,0.1,0.2c0.1,0.1,0.2,0.1,0.3,0.1c0.1,0,0.2,0,0.3-0.1c0.1-0.1,0.1-0.1,0.1-0.2v-3.4c0.1,0.3,0.4,0.5,0.7,0.7
			c0.3,0.2,0.6,0.3,1,0.3c0.6,0,1.1-0.2,1.5-0.7c0.4-0.5,0.7-1,0.7-1.6v-1.3c0-0.6-0.2-1.2-0.7-1.6C78.4,86.1,77.9,85.9,77.2,85.9z
			 M78.7,89.5c0,0.4-0.2,0.8-0.5,1.1c-0.3,0.3-0.7,0.5-1.1,0.5c-0.4,0-0.7-0.1-1-0.4c-0.3-0.3-0.5-0.6-0.5-0.8v-1.7
			c0-0.5,0.1-0.8,0.4-1.1c0.3-0.3,0.6-0.4,1-0.4c0.4,0,0.8,0.2,1.1,0.5c0.3,0.3,0.5,0.7,0.5,1.1V89.5z M82.4,85.9
			c-0.4,0-0.8,0.1-1.1,0.2c-0.4,0.1-0.5,0.3-0.5,0.4c0,0.1,0,0.2,0.1,0.3c0.1,0.1,0.1,0.1,0.2,0.1c0,0,0.2-0.1,0.4-0.2
			c0.3-0.1,0.6-0.2,0.9-0.2c0.5,0,0.9,0.2,1.1,0.5c0.2,0.3,0.4,0.7,0.4,1.2v0.3h-0.6c-0.9,0-1.6,0.1-2.1,0.4s-0.7,0.7-0.7,1.3
			c0,0.5,0.2,0.9,0.5,1.2c0.3,0.3,0.7,0.4,1.2,0.4c0.7,0,1.3-0.3,1.9-0.9v0.5c0,0.1,0,0.2,0.1,0.2c0.1,0.1,0.2,0.1,0.3,0.1
			c0.1,0,0.2,0,0.3-0.1c0.1-0.1,0.1-0.1,0.1-0.2v-3.2c0-0.7-0.2-1.3-0.5-1.7C83.8,86.1,83.2,85.9,82.4,85.9z M83.9,89.9
			c0,0.3-0.2,0.6-0.5,0.9c-0.3,0.3-0.7,0.4-1.1,0.4c-0.3,0-0.6-0.1-0.8-0.3s-0.3-0.4-0.3-0.8c0-0.2,0.1-0.4,0.2-0.6s0.3-0.3,0.5-0.3
			s0.4-0.1,0.7-0.1c0.2,0,0.5,0,0.8,0h0.5V89.9z M86.6,82.4c-0.1,0-0.2,0-0.3,0.1c-0.1,0.1-0.1,0.1-0.1,0.2v8.8c0,0.1,0,0.2,0.1,0.2
			s0.2,0.1,0.3,0.1c0.1,0,0.2,0,0.3-0.1s0.1-0.1,0.1-0.2v-8.8c0-0.1,0-0.2-0.1-0.2C86.9,82.4,86.8,82.4,86.6,82.4z"/>
	</g>
</g>
</svg>
